<mxfile host="app.diagrams.net" modified="2021-05-15T19:03:36.590Z" agent="5.0 (Windows NT 10.0; Win64; x64) AppleWebKit/537.36 (KHTML, like Gecko) Chrome/90.0.4430.212 Safari/537.36 Edg/90.0.818.62" etag="isIG0-tlmBVZDBat52pJ" version="14.6.9" type="github">
  <diagram id="VT-_kEsj-mdWYt2XpcHI" name="Page-1">
    <mxGraphModel dx="2725" dy="1522" grid="1" gridSize="10" guides="1" tooltips="1" connect="1" arrows="1" fold="1" page="1" pageScale="1" pageWidth="1600" pageHeight="1200" math="0" shadow="0">
      <root>
        <mxCell id="0" />
        <mxCell id="1" parent="0" />
      </root>
    </mxGraphModel>
  </diagram>
</mxfile>
